<svg id="Outline" xmlns="http://www.w3.org/2000/svg" width="40" height="40" viewBox="0 0 40 40">
  <defs>
    <style>
      .cls-1 {
        fill: none;
      }
    </style>
  </defs>
  <g>
    <rect class="cls-1" width="40" height="40"/>
    <g>
      <path d="M8.34326,29H5a1,1,0,0,1,0-2H8.34326a3.02037,3.02037,0,0,0,2.1211-.87891L14.293,22.293A.99989.99989,0,0,1,15.707,23.707l-3.82861,3.82813A4.9679,4.9679,0,0,1,8.34326,29Z"/>
      <path d="M35.707,11.293l-4-4A.99989.99989,0,0,0,30.293,8.707L32.58594,11h-4.9292a4.96656,4.96656,0,0,0-3.53516,1.46436L20.293,16.293A.99989.99989,0,1,0,21.707,17.707l3.82861-3.82861A3.022,3.022,0,0,1,27.65674,13h4.9292l-2.293,2.293A.99989.99989,0,1,0,31.707,16.707l4-4A.99962.99962,0,0,0,35.707,11.293Z"/>
      <path d="M35.707,27.293l-4-4A.99989.99989,0,0,0,30.293,24.707L32.58594,27h-4.9292a3.02037,3.02037,0,0,1-2.1211-.87891L11.87842,12.46436A4.96656,4.96656,0,0,0,8.34326,11H5a1,1,0,0,0,0,2H8.34326a3.022,3.022,0,0,1,2.1211.87842L24.12158,27.53516A4.9679,4.9679,0,0,0,27.65674,29h4.9292l-2.293,2.293A.99989.99989,0,1,0,31.707,32.707l4-4A.99962.99962,0,0,0,35.707,27.293Z"/>
    </g>
  </g>
</svg>
